<svg width="38" height="38" viewBox="0 0 38 38" fill="none" xmlns="http://www.w3.org/2000/svg">
<path d="M23.9891 24.9415C27.2704 24.9415 29.9305 22.2814 29.9305 19.0001C29.9305 15.7187 27.2704 13.0586 23.9891 13.0586C20.7077 13.0586 18.0476 15.7187 18.0476 19.0001C18.0476 22.2814 20.7077 24.9415 23.9891 24.9415Z" stroke="#4726CA" stroke-linecap="round" stroke-linejoin="round"/>
<path d="M12.2067 14.8628C11.1094 14.8628 10.0571 15.2987 9.28123 16.0746C8.50535 16.8505 8.06946 17.9028 8.06946 19C8.06946 20.0973 8.50535 21.1496 9.28123 21.9255C10.0571 22.7014 11.1094 23.1373 12.2067 23.1373H19.475" stroke="#4726CA" stroke-linecap="round" stroke-linejoin="round"/>
<path d="M12.2067 14.8628H19.5019" stroke="#4726CA"/>
<path d="M19 36.0208C28.4003 36.0208 36.0208 28.4003 36.0208 19C36.0208 9.59961 28.4003 1.97913 19 1.97913C9.59961 1.97913 1.97913 9.59961 1.97913 19C1.97913 28.4003 9.59961 36.0208 19 36.0208Z" stroke="#4726CA" stroke-linecap="round" stroke-linejoin="round"/>
</svg>
