<svg width="80" height="44" viewBox="0 0 80 44" fill="none" xmlns="http://www.w3.org/2000/svg">
<rect width="80" height="44" rx="22" fill="white" fill-opacity="0.5"/>
<path d="M40.0013 30.0001C33.2786 30.0094 26.668 26.4188 26.668 22.0001C26.668 17.5814 33.3133 13.9774 40.0013 14.0001C46.6893 14.0228 53.3346 17.5814 53.3346 22.0001C53.3346 26.4188 46.724 29.9908 40.0013 30.0001ZM40.0013 27.3334C41.4158 27.3334 42.7723 26.7715 43.7725 25.7713C44.7727 24.7711 45.3346 23.4146 45.3346 22.0001C45.3346 20.5856 44.7727 19.2291 43.7725 18.2289C42.7723 17.2287 41.4158 16.6668 40.0013 16.6668C38.5868 16.6668 37.2303 17.2287 36.2301 18.2289C35.2299 19.2291 34.668 20.5856 34.668 22.0001C34.668 23.4146 35.2299 24.7711 36.2301 25.7713C37.2303 26.7715 38.5868 27.3334 40.0013 27.3334ZM40.0013 24.6668C39.2941 24.6668 38.6158 24.3858 38.1157 23.8857C37.6156 23.3856 37.3346 22.7073 37.3346 22.0001C37.3346 21.2929 37.6156 20.6146 38.1157 20.1145C38.6158 19.6144 39.2941 19.3334 40.0013 19.3334C40.7085 19.3334 41.3868 19.6144 41.8869 20.1145C42.387 20.6146 42.668 21.2929 42.668 22.0001C42.668 22.7073 42.387 23.3856 41.8869 23.8857C41.3868 24.3858 40.7085 24.6668 40.0013 24.6668Z" fill="white"/>
</svg>
