<svg width="619" height="422" viewBox="0 0 619 422" fill="none" xmlns="http://www.w3.org/2000/svg">
<rect x="142.915" width="333.837" height="422" fill="#D9D9D9"/>
<path d="M234.947 222.867V187.107H242.387V222.867H234.947ZM248.061 222.867V187.107H255.261L268.653 204.867H265.293L278.301 187.107H285.501V222.867H278.061V195.315L281.037 195.987L267.261 213.747H266.301L253.005 195.987L255.501 195.315V222.867H248.061ZM288.536 222.867L300.632 187.107H310.52L322.616 222.867H314.504L312.104 215.571H299L296.6 222.867H288.536ZM301.064 209.091H310.04L304.568 192.195H306.584L301.064 209.091ZM341.396 223.443C338.836 223.443 336.452 222.979 334.244 222.051C332.036 221.123 330.1 219.827 328.436 218.163C326.772 216.499 325.476 214.547 324.548 212.307C323.62 210.067 323.156 207.619 323.156 204.963C323.156 202.307 323.604 199.859 324.5 197.619C325.396 195.347 326.66 193.395 328.292 191.763C329.924 190.099 331.828 188.819 334.004 187.923C336.212 186.995 338.612 186.531 341.204 186.531C343.796 186.531 346.116 186.963 348.164 187.827C350.244 188.691 352.004 189.843 353.444 191.283C354.884 192.723 355.908 194.323 356.516 196.083L349.94 199.251C349.332 197.523 348.26 196.099 346.724 194.979C345.22 193.827 343.38 193.251 341.204 193.251C339.092 193.251 337.236 193.747 335.636 194.739C334.036 195.731 332.788 197.107 331.892 198.867C331.028 200.595 330.596 202.627 330.596 204.963C330.596 207.299 331.06 209.347 331.988 211.107C332.916 212.867 334.18 214.243 335.78 215.235C337.412 216.227 339.284 216.723 341.396 216.723C343.028 216.723 344.548 216.419 345.956 215.811C347.396 215.171 348.548 214.259 349.412 213.075C350.308 211.891 350.756 210.467 350.756 208.803V205.827L354.164 208.707H341.204V202.467H358.196V206.259C358.196 209.171 357.716 211.715 356.756 213.891C355.796 216.035 354.5 217.827 352.868 219.267C351.268 220.675 349.46 221.731 347.444 222.435C345.46 223.107 343.444 223.443 341.396 223.443ZM362.124 222.867V187.107H386.172V193.587H369.564V201.699H385.212V208.179H369.564V216.387H386.172V222.867H362.124Z" fill="black"/>
</svg>
